<svg xmlns="http://www.w3.org/2000/svg" width="70" height="46" fill="none"><path fill="#F2C130" d="M23.079 0c12.735 0 23.078 10.308 23.078 23S35.814 46 23.08 46H0V23C0 10.308 10.343 0 23.079 0"/><path fill="#997AEA" d="M69.999 22.995C69.999 10.295 59.669 0 46.925 0 34.182 0 23.852 10.295 23.852 22.995S34.182 45.99 46.925 45.99 70 35.695 70 22.995"/><path fill="#F36E6E" d="M23.852 22.993c0 8.349 4.466 15.66 11.147 19.696 6.68-4.026 11.147-11.337 11.147-19.696 0-8.35-4.467-15.66-11.147-19.696-6.68 4.026-11.147 11.337-11.147 19.696"/></svg>