<svg width="70" height="46" viewBox="0 0 70 46" fill="none" xmlns="http://www.w3.org/2000/svg">
<g id="Group 131">
<path id="Vector" d="M23.0786 0C35.8139 0 46.1571 10.308 46.1571 23C46.1571 35.692 35.8139 46 23.0786 46H0V23C0 10.308 10.3432 0 23.0786 0Z" fill="#F2C130"/>
<path id="Vector_2" d="M69.9988 22.9951C69.9988 10.2952 59.6683 0 46.9252 0C34.182 0 23.8516 10.2952 23.8516 22.9951C23.8516 35.6949 34.182 45.9901 46.9252 45.9901C59.6683 45.9901 69.9988 35.6949 69.9988 22.9951Z" fill="#997AEA"/>
<path id="Vector_3" d="M23.8516 22.9928C23.8516 31.342 28.3184 38.6526 34.9988 42.6887C41.6791 38.6625 46.146 31.3519 46.146 22.9928C46.146 14.6435 41.6791 7.333 34.9988 3.29688C28.3184 7.32311 23.8516 14.6336 23.8516 22.9928Z" fill="#F36E6E"/>
</g>
</svg>
